<?xml version="1.0" standalone="no"?>
<!DOCTYPE svg PUBLIC "-//W3C//DTD SVG 20010904//EN"
 "http://www.w3.org/TR/2001/REC-SVG-20010904/DTD/svg10.dtd">
<svg version="1.0" xmlns="http://www.w3.org/2000/svg"
 width="278.000000pt" height="70.000000pt" viewBox="0 0 278.000000 70.000000"
 preserveAspectRatio="xMidYMid meet">
<metadata>
Created by potrace 1.15, written by Peter Selinger 2001-2017
</metadata>
<g transform="translate(0.000000,70.000000) scale(0.100000,-0.100000)"
fill="#000000" stroke="none">
<path d="M0 521 l0 -179 58 -4 c31 -2 167 -5 302 -7 l246 -2 -4 125 -4 126 31
0 c29 0 31 -2 24 -27 -20 -71 -2 -149 47 -200 32 -35 107 -32 148 5 27 24 30
33 30 90 l0 62 -42 0 c-23 0 -47 5 -54 12 -9 9 -12 1 -12 -40 l0 -51 30 6 c24
4 30 2 30 -11 0 -46 -107 -38 -129 10 -23 51 -4 133 34 148 47 18 110 -8 98
-40 -4 -10 0 -12 11 -8 8 3 18 14 21 25 4 12 16 19 33 19 l27 0 -2 -125 -2
-125 104 0 104 0 -2 130 -2 130 83 0 c96 0 91 17 40 -130 -46 -134 -45 -130
-10 -130 28 0 31 3 34 38 l3 37 53 3 c55 3 57 2 52 -55 -1 -21 3 -23 47 -23
l48 0 0 -127 0 -128 143 -3 144 -3 -6 28 c-9 42 5 55 55 51 43 -3 44 -4 47
-41 3 -35 5 -37 38 -37 26 0 34 4 34 18 0 10 -5 23 -11 29 -6 6 -26 56 -43
110 l-32 98 79 0 79 0 -4 -127 -4 -128 128 0 128 0 0 130 0 130 60 0 60 0 0
-130 0 -130 74 0 c41 0 78 -5 81 -10 14 -23 25 -7 25 40 0 28 -4 50 -10 50 -5
0 -10 -4 -10 -10 0 -6 -27 -10 -60 -10 l-60 0 0 36 0 37 49 -6 49 -6 0 44 0
44 -49 -6 -49 -6 0 32 c0 31 0 31 54 31 30 0 58 -5 61 -10 14 -22 26 -8 23 27
l-3 38 -388 2 -388 3 2 -33 c2 -17 -12 -76 -30 -129 l-33 -98 -95 0 -94 0 3
260 3 260 -30 0 -31 0 4 -125 4 -125 -23 0 c-22 0 -27 10 -54 98 -16 53 -29
109 -27 125 l3 27 -175 0 c-111 0 -176 4 -176 10 0 6 -6 10 -14 10 -10 0 -14
-14 -14 -50 0 -47 9 -63 23 -40 3 6 19 10 36 10 l29 0 0 -95 0 -95 -56 0 -56
0 4 125 4 125 -211 0 -211 0 4 -125 4 -125 -37 0 c-32 0 -36 3 -30 18 5 9 10
45 13 80 5 70 -11 140 -40 177 l-19 25 -225 0 -224 0 0 -179z m440 92 c19 -24
21 -38 18 -102 -4 -92 -22 -111 -104 -111 l-54 0 0 120 0 120 59 0 c53 0 62
-3 81 -27z m1770 -383 l0 -100 -82 0 -83 0 0 100 0 100 83 0 82 0 0 -100z"/>
<path d="M2344 649 c-80 -22 -68 -145 21 -213 40 -31 61 -33 70 -6 3 11 10 20
14 20 5 0 9 18 9 41 1 44 -31 129 -48 129 -5 0 -10 6 -10 14 0 19 -19 24 -56
15z"/>
<path d="M2522 607 c-25 -35 -30 -52 -28 -96 1 -47 5 -57 29 -75 l29 -21 24
30 c29 36 39 81 30 143 -10 75 -41 82 -84 19z"/>
<path d="M2713 432 c-33 -22 -47 -150 -20 -186 19 -26 49 -16 69 24 22 44 22
83 2 125 -16 35 -34 48 -51 37z"/>
<path d="M1324 206 c-21 -23 -42 -70 -48 -111 -6 -33 -3 -46 14 -68 27 -34 66
-36 76 -4 4 12 10 24 15 27 5 3 11 31 15 63 5 42 3 62 -8 79 -17 26 -47 32
-64 14z"/>
</g>
</svg>
